<svg width="49" height="58" viewBox="0 0 49 58" fill="none" xmlns="http://www.w3.org/2000/svg">
<path d="M1.58139 7.23034L0.115938 25.6256L0.000244141 26.9368C0.115938 29.5978 2.31412 31.7188 5.01363 31.7188C7.4432 31.7188 9.48711 29.9834 9.94989 27.6695L10.027 26.2812L10.6826 14.4033L24.0259 10.3541V0.404419L1.58139 7.23034Z" fill="#C550E5"/>
<path fill-rule="evenodd" clip-rule="evenodd" d="M47.8199 24.8543H37.9089L37.3304 14.4033L23.9871 10.3541V0.404419L46.4316 7.23034L47.8199 24.8543Z" fill="url(#paint0_linear)"/>
<path d="M27.9595 33.0299H37.3692C36.1352 37.2335 32.8186 43.1338 24.0259 46.9131V57.5955C24.0259 57.5955 48.013 50.4225 48.013 27.091L47.8202 24.8542H23.1389V33.0299H27.9595Z" fill="#C550E5"/>
<path fill-rule="evenodd" clip-rule="evenodd" d="M23.9871 57.5571C23.9871 57.5571 0.501339 50.5384 0 27.8239L0.115694 27.7853C0.617032 30.022 2.62239 31.7189 5.01339 31.7189C7.44295 31.7189 9.48687 29.9835 9.94964 27.6696L10.0268 26.2813V25.4714C9.564 37.735 15.3487 43.1725 23.9871 46.9133V57.5571Z" fill="url(#paint1_linear)"/>
<defs>
<linearGradient id="paint0_linear" x1="41.6496" y1="33.3771" x2="39.5286" y2="0.40442" gradientUnits="userSpaceOnUse">
<stop offset="0.278143" stop-color="#0E1757"/>
<stop offset="0.72075" stop-color="#C550E5"/>
</linearGradient>
<linearGradient id="paint1_linear" x1="4.40787" y1="22.2161" x2="4.2421" y2="57.48" gradientUnits="userSpaceOnUse">
<stop offset="0.243003" stop-color="#0E1757"/>
<stop offset="0.675437" stop-color="#C550E5"/>
</linearGradient>
</defs>
</svg>
